<svg xmlns="http://www.w3.org/2000/svg" width="640" height="360" viewBox="0 0 320 180"><defs><linearGradient id="s" x2="0" y2="1"><stop stop-color="#625078"/><stop offset="1" stop-color="#bd9a70"/></linearGradient><radialGradient id="g"><stop stop-color="#ffe1a0" stop-opacity=".6"/><stop offset="1" stop-color="#ffe1a0" stop-opacity="0"/></radialGradient></defs><rect width="320" height="180" fill="url(#s)"/><circle cx="237" cy="44" r="76" fill="url(#g)"/><path d="M0 106Q50 73 96 106T194 99T320 94V180H0" fill="#bd9a70" opacity=".68"/><path d="M0 137Q55 113 112 139T222 127T320 132V180H0" fill="#bd9a70"/><g fill="#ffe1a0" opacity=".8"><path d="M116 25l3 7 7 2-7 2-3 7-2-7-7-2 7-2z"/><circle cx="272" cy="30" r="1.5"/><circle cx="90" cy="48" r="1"/></g><g stroke="#49384e" stroke-width="3"><path d="M232 132h50v-30h-50z" fill="#db748c"/><path d="M226 105h62v-12h-62z" fill="#f0c26f"/><path d="M255 93q-20-7-13-16 10-5 16 16 8-22 17-16 4 10-17 16" fill="#f2d485"/><path d="M247 105v27m17-27v27" stroke="#f5e3b0"/></g><g stroke="#292a39" stroke-width="3" stroke-linejoin="round"><path d="M26 128V61h58v67" fill="#625078"/><path d="M34 69h42v51H34z" fill="#ffe1a0"/><path d="M55 69v51M34 94h42" stroke="#514554" stroke-width="2"/><path d="M0 145h320" stroke="#ffe1a0" stroke-width="2"/><ellipse cx="164" cy="154" rx="32" ry="7" fill="#202735" stroke="none" opacity=".55"/><path d="M143 111q20-13 40 0l11 35h-62z" fill="#b75d72"/><path d="M151 112l12 9 12-9 9 34h-42z" fill="#e7aa8c"/><path d="M143 144h52" stroke="#ffe1a0"/><ellipse cx="163" cy="91" rx="17" ry="20" fill="#f1c8a7"/><path d="M146 91q-2-24 17-25 20 0 19 24l-9-10-17 3z" fill="#583a50"/><path d="M152 94h3m17 0h3" stroke="#403545" stroke-width="2"/><path d="M158 102q5 4 9 0" fill="none" stroke="#b46d70" stroke-width="2"/><path d="M175 75l6-10 7 10-7 8z" fill="#ffe1a0"/><path d="M145 116l-14 16 8 5 14-15m29-6 14 15-7 6-15-13" fill="#f1c8a7"/><path d="M145 145v9h13v-5l-4-4m20 0v9h13v-5l-4-4" fill="#55404a"/></g><g fill="#ffe1a0"><path d="M15 158q4-12 8 0 4-11 8 0v5H15z"/><path d="M283 153q4-12 8 0 4-11 8 0v6h-16z"/><circle cx="36" cy="147" r="2"/><circle cx="298" cy="143" r="2"/></g><rect x="1" y="1" width="318" height="178" rx="4" fill="none" stroke="#fff0c7" stroke-opacity=".32" stroke-width="2"/></svg>